<?xml version="1.0" encoding="UTF-8"?>
<svg id="Layer_1" data-name="Layer 1" xmlns="http://www.w3.org/2000/svg" viewBox="0 0 80 42">
  <defs>
    <style>
      .cls-1 {
        fill: none;
      }

      .cls-2 {
        fill: #e81b1b;
      }
    </style>
  </defs>
  <rect class="cls-1" width="80" height="42"/>
  <path d="M29.42,27.97h-2.08v3.63h-2.08v-3.63h-10.08c-1.32,0-2.38-1.06-2.38-2.38,0-.8.41-1.49,1.02-1.95l5.34-3.98h3.57l-8.48,6.22h11.01v-6.22h2.08v6.22h2.08v2.07h0Z"/>
  <path d="M63.12,27.97h-2.08v3.63h-2.08v-3.63h-10.08c-1.32,0-2.38-1.06-2.38-2.38,0-.8.41-1.49,1.02-1.95l5.34-3.98h3.57l-8.48,6.22h11.01v-6.22h2.08v6.22h2.08v2.07h0Z"/>
  <path class="cls-2" d="M5.08,16.83h18.34v-3.04H3.36v-3.92h20.06v-3.04H3.36v-3.78h20.06V0H5.08C2.44,0,.32,2.12.32,4.75v7.33c0,2.63,2.13,4.75,4.76,4.75h0Z"/>
  <path class="cls-2" d="M79.2,3.04V0h-18.34C58.23,0,56.1,2.12,56.1,4.75v7.33c0,2.63,2.13,4.75,4.76,4.75h18.34v-3.04h-20.06V3.04h20.06Z"/>
  <g>
    <g>
      <path d="M7.97,41.9h-1.46l-.62-.85h-3.73l-.62.85H.07l2.95-3.94c.24-.31.58-.57,1.01-.57s.77.25,1,.57l2.95,3.94ZM5.04,39.9l-1.02-1.41-1.02,1.41h2.05,0Z"/>
      <path d="M15.3,40.51c0,.77-.62,1.39-1.39,1.39h-4.82v-4.41h4.82c.77,0,1.39.62,1.39,1.39v1.63ZM14.15,40.75v-2.11h-3.91v2.11h3.91Z"/>
      <path d="M24.05,37.49l-2.95,3.94c-.23.31-.58.57-1,.57s-.77-.25-1.01-.57l-2.95-3.94h1.46l2.49,3.41,2.48-3.41h1.47Z"/>
      <path d="M31.08,41.9h-4.82c-.77,0-1.39-.62-1.39-1.39v-1.63c0-.77.62-1.39,1.39-1.39h4.82v1.15h-5.06v.54h5.06v1.03h-5.06v.54h5.06v1.15Z"/>
      <path d="M70.98,41.9h-4.82c-.77,0-1.39-.62-1.39-1.39v-1.63c0-.77.62-1.39,1.39-1.39h4.82v1.15h-5.06v.54h5.06v1.03h-5.06v.54h5.06v1.15Z"/>
      <path d="M39.32,37.49v3.36c0,.64-.51,1.15-1.15,1.15-.32,0-.61-.13-.82-.34l-3.14-3.12v3.36h-1.15v-3.36c0-.64.52-1.15,1.15-1.15.32,0,.6.14.82.34l3.14,3.11v-3.36h1.15Z"/>
      <path d="M46.79,38.64h-2.5v3.26h-1.15v-3.26h-2.5v-1.15h6.15v1.15Z"/>
      <path d="M54.81,40.51c0,.77-.62,1.39-1.39,1.39h-3.43c-.77,0-1.39-.62-1.39-1.39v-3.02h1.15v3.26h3.91v-3.26h1.15v3.02Z"/>
      <path d="M62.98,41.9h-1.15v-1.15h-3.91v1.15h-1.15v-4.41h4.82c.77,0,1.39.62,1.39,1.39v.48c0,.34-.16.62-.4.82.24.19.4.48.4.82v.91ZM61.83,39.6v-.96h-3.91v.96h3.91Z"/>
      <path d="M77.6,41.9h-4.82v-1.15h5.06v-.48h-3.88c-.78,0-1.39-.62-1.39-1.39s.62-1.39,1.39-1.39h4.82v1.15h-5.06v.48h3.88c.77,0,1.39.62,1.39,1.39s-.62,1.39-1.39,1.39Z"/>
    </g>
    <path class="cls-2" d="M42.47,26.07s-.04-.03-.04-.08.03-.07.04-.08l11.07-8.7V0S50.5,0,50.5,0v15.75s-9.91,7.78-9.91,7.78c-.41.32-.73.73-.93,1.2-.2-.46-.52-.87-.93-1.2l-10.23-8.04v-4.39h15.3c2.63,0,4.76-2.12,4.76-4.75v-1.59C48.57,2.13,46.44,0,43.81,0h-18.34v16.94s11.4,8.96,11.4,8.96c0,0,.04.03.04.08s-.03.07-.04.08l-8.46,6.66H.32v2.98h29.19l9.23-7.27c.41-.32.72-.73.93-1.2.2.46.52.87.93,1.2l9.23,7.27h29.37v-2.98h-28.27l-8.46-6.66h0ZM28.52,3.04h17.01v5.02h-17.01V3.04Z"/>
  </g>
</svg>