<?xml version="1.0" encoding="UTF-8"?>
<svg id="Layer_1" data-name="Layer 1" xmlns="http://www.w3.org/2000/svg" viewBox="0 0 130.04 28.36">
  <defs>
    <style>
      .cls-1 {
        fill: #e81b1b;
      }
    </style>
  </defs>
  <g>
    <path d="M8.17,21.67c-.38-.51-.95-.94-1.65-.94s-1.26.43-1.66.94L0,28.17h2.41l1.04-1.4h6.14l1.02,1.4h2.41l-4.85-6.5ZM4.82,24.88l1.69-2.32,1.68,2.32h-3.37Z"/>
    <path d="M22.8,20.89h-7.94v7.28h7.94c1.27,0,2.3-1.02,2.3-2.3v-2.68c0-1.27-1.03-2.3-2.3-2.3ZM23.2,26.27h-6.44v-3.48h6.44v3.48Z"/>
    <path d="M39.52,20.89l-4.86,6.5c-.38.51-.96.94-1.65.94s-1.27-.42-1.66-.94l-4.86-6.5h2.41l4.11,5.61,4.09-5.61h2.42Z"/>
    <path d="M51.1,28.17h-7.94c-1.27,0-2.3-1.03-2.3-2.29v-2.69c0-1.26,1.03-2.29,2.3-2.29h7.94v1.9h-8.34v.89h8.34v1.69h-8.34v.89h8.34v1.9Z"/>
    <path d="M116.84,28.17h-7.94c-1.27,0-2.3-1.03-2.3-2.29v-2.69c0-1.26,1.03-2.29,2.3-2.29h7.94v1.9h-8.34v.89h8.34v1.69h-8.34v.89h8.34v1.9Z"/>
    <path d="M64.68,20.89v5.53c0,1.05-.85,1.9-1.9,1.9-.53,0-1.01-.21-1.35-.55l-5.17-5.14v5.53h-1.9v-5.53c0-1.05.86-1.9,1.9-1.9.53,0,.99.23,1.35.57l5.17,5.13v-5.53h1.9Z"/>
    <path d="M76.98,22.79h-4.12v5.38h-1.9v-5.38h-4.12v-1.9h10.14v1.9Z"/>
    <path d="M90.19,25.88c0,1.27-1.03,2.29-2.3,2.29h-5.65c-1.27,0-2.3-1.03-2.3-2.29v-4.98h1.9v5.38h6.44v-5.38h1.9v4.98Z"/>
    <path d="M103.66,23.98v-.79c0-1.27-1.04-2.3-2.3-2.3h-7.95v7.28h1.91v-1.9h6.44v1.9h1.9v-1.5c0-.56-.27-1.03-.66-1.35.39-.32.66-.79.66-1.34ZM101.76,24.38h-6.44v-1.59h6.44v1.59Z"/>
    <path d="M127.74,28.17h-7.94v-1.9h8.34v-.79h-6.38c-1.28,0-2.3-1.03-2.3-2.29s1.02-2.29,2.3-2.29h7.94v1.9h-8.34v.79h6.38c1.27,0,2.3,1.03,2.3,2.29s-1.03,2.29-2.3,2.29Z"/>
  </g>
  <g>
    <g>
      <path d="M96.34,9.09h-2.08v3.63h-2.08v-3.63h-10.08c-1.32,0-2.38-1.06-2.38-2.38,0-.8.41-1.49,1.02-1.95l5.34-3.98h3.57l-8.48,6.22h11.01V.79h2.08v6.22h2.08v2.07h0Z"/>
      <path d="M130.04,9.09h-2.08v3.63h-2.08v-3.63h-10.08c-1.32,0-2.38-1.06-2.38-2.38,0-.8.41-1.49,1.02-1.95l5.34-3.98h3.57l-8.48,6.22h11.01V.79h2.08v6.22h2.08v2.07h0Z"/>
      <path class="cls-1" d="M60.54,0h18.34v3.04h-20.05v10.75h8.41v-.02h11.64v3.06h-18.34c-2.63,0-4.76-2.13-4.76-4.75v-7.33C55.78,2.12,57.91,0,60.54,0Z"/>
      <path class="cls-1" d="M130.04,13.85v2.98h-13.29l-3.78-2.98-5.45-4.29c-.41-.32-.73-.73-.93-1.19-.2.46-.52.87-.93,1.19l-5.45,4.29-3.78,2.98h-16.71v-3.06h15.6l8.46-6.58s.04-.03.04-.08-.04-.08-.04-.08L94.84,0h4.9l5.91,4.65c.42.32.73.73.94,1.19.2-.46.52-.87.93-1.19L113.44,0h4.88l-8.93,7.02s-.04.03-.04.08c0,.06.04.09.04.09h.01l8.46,6.66h12.18Z"/>
    </g>
    <g>
      <path class="cls-1" d="M4.76,16.83h18.34v-3.04H3.05v-3.92h20.06v-3.04H3.05v-3.78h20.06V0H4.76C2.13,0,0,2.12,0,4.75v7.33c0,2.63,2.13,4.75,4.76,4.75h0Z"/>
      <polygon class="cls-1" points="53.23 0 53.22 16.83 50.18 16.83 50.18 0 53.23 0"/>
      <path class="cls-1" d="M43.49,0h-18.34v16.83s3.04,0,3.04,0v-5.73h15.3c2.63,0,4.76-2.12,4.76-4.75v-1.6C48.25,2.13,46.12,0,43.49,0ZM45.21,8.06h-17.01V3.04h17.01v5.02Z"/>
    </g>
  </g>
</svg>